<mxfile host="app.diagrams.net" modified="2022-03-12T04:36:59.753Z" agent="5.0 (Windows NT 10.0; Win64; x64) AppleWebKit/537.36 (KHTML, like Gecko) Chrome/99.0.4844.51 Safari/537.36" etag="KzVP-Dosxd8eoRSO1VQR" version="17.1.2" type="github">
  <diagram id="dX92sFr738H9TGtX4DIV" name="Page-1">
    <mxGraphModel dx="1422" dy="774" grid="1" gridSize="10" guides="1" tooltips="1" connect="1" arrows="1" fold="1" page="1" pageScale="1" pageWidth="827" pageHeight="1169" math="0" shadow="0">
      <root>
        <mxCell id="0" />
        <mxCell id="1" parent="0" />
        <mxCell id="G4AfzQulYHPNJcX-L-j1-8" value="AWS Cloud" style="points=[[0,0],[0.25,0],[0.5,0],[0.75,0],[1,0],[1,0.25],[1,0.5],[1,0.75],[1,1],[0.75,1],[0.5,1],[0.25,1],[0,1],[0,0.75],[0,0.5],[0,0.25]];outlineConnect=0;gradientColor=none;html=1;whiteSpace=wrap;fontSize=12;fontStyle=0;container=1;pointerEvents=0;collapsible=0;recursiveResize=0;shape=mxgraph.aws4.group;grIcon=mxgraph.aws4.group_aws_cloud_alt;strokeColor=#232F3E;fillColor=none;verticalAlign=top;align=left;spacingLeft=30;fontColor=#232F3E;dashed=0;" parent="1" vertex="1">
          <mxGeometry x="110" y="270" width="560" height="810" as="geometry" />
        </mxCell>
        <mxCell id="G4AfzQulYHPNJcX-L-j1-22" value="Auto Scaling group" style="points=[[0,0],[0.25,0],[0.5,0],[0.75,0],[1,0],[1,0.25],[1,0.5],[1,0.75],[1,1],[0.75,1],[0.5,1],[0.25,1],[0,1],[0,0.75],[0,0.5],[0,0.25]];outlineConnect=0;gradientColor=none;html=1;whiteSpace=wrap;fontSize=12;fontStyle=0;container=1;pointerEvents=0;collapsible=0;recursiveResize=0;shape=mxgraph.aws4.groupCenter;grIcon=mxgraph.aws4.group_auto_scaling_group;grStroke=1;strokeColor=#D86613;fillColor=none;verticalAlign=top;align=center;fontColor=#D86613;dashed=1;spacingTop=25;" parent="G4AfzQulYHPNJcX-L-j1-8" vertex="1">
          <mxGeometry x="40" y="270" width="410" height="500" as="geometry" />
        </mxCell>
        <mxCell id="G4AfzQulYHPNJcX-L-j1-21" value="EC2 instance contents" style="points=[[0,0],[0.25,0],[0.5,0],[0.75,0],[1,0],[1,0.25],[1,0.5],[1,0.75],[1,1],[0.75,1],[0.5,1],[0.25,1],[0,1],[0,0.75],[0,0.5],[0,0.25]];outlineConnect=0;gradientColor=none;html=1;whiteSpace=wrap;fontSize=12;fontStyle=0;container=1;pointerEvents=0;collapsible=0;recursiveResize=0;shape=mxgraph.aws4.group;grIcon=mxgraph.aws4.group_ec2_instance_contents;strokeColor=#D86613;fillColor=none;verticalAlign=top;align=left;spacingLeft=30;fontColor=#D86613;dashed=0;" parent="G4AfzQulYHPNJcX-L-j1-22" vertex="1">
          <mxGeometry x="33" y="80" width="347" height="330" as="geometry" />
        </mxCell>
        <mxCell id="ecZtBlpuf6oP3BJnYMk2-47" value="" style="fillColor=#FFE6CC;strokeColor=#147EBA;dashed=1;verticalAlign=top;fontStyle=0;fontColor=#147EBA;" vertex="1" parent="G4AfzQulYHPNJcX-L-j1-21">
          <mxGeometry x="14" y="28" width="196" height="142" as="geometry" />
        </mxCell>
        <mxCell id="ecZtBlpuf6oP3BJnYMk2-19" value="" style="group" vertex="1" connectable="0" parent="G4AfzQulYHPNJcX-L-j1-21">
          <mxGeometry x="23" y="30" width="280" height="290" as="geometry" />
        </mxCell>
        <mxCell id="ecZtBlpuf6oP3BJnYMk2-46" value="" style="whiteSpace=wrap;html=1;aspect=fixed;fillColor=#FFCC99;gradientColor=none;" vertex="1" parent="ecZtBlpuf6oP3BJnYMk2-19">
          <mxGeometry x="77" y="46" width="81" height="81" as="geometry" />
        </mxCell>
        <mxCell id="ecZtBlpuf6oP3BJnYMk2-45" value="" style="whiteSpace=wrap;html=1;aspect=fixed;fillColor=#FFCC99;gradientColor=none;" vertex="1" parent="ecZtBlpuf6oP3BJnYMk2-19">
          <mxGeometry x="60.70999999999998" y="36" width="81" height="81" as="geometry" />
        </mxCell>
        <mxCell id="ecZtBlpuf6oP3BJnYMk2-35" value="Private subnet" style="points=[[0,0],[0.25,0],[0.5,0],[0.75,0],[1,0],[1,0.25],[1,0.5],[1,0.75],[1,1],[0.75,1],[0.5,1],[0.25,1],[0,1],[0,0.75],[0,0.5],[0,0.25]];outlineConnect=0;gradientColor=none;html=1;whiteSpace=wrap;fontSize=12;fontStyle=0;container=1;pointerEvents=0;collapsible=0;recursiveResize=0;shape=mxgraph.aws4.group;grIcon=mxgraph.aws4.group_security_group;grStroke=0;strokeColor=#147EBA;fillColor=#E6F2F8;verticalAlign=top;align=left;spacingLeft=30;fontColor=#147EBA;dashed=0;" vertex="1" parent="ecZtBlpuf6oP3BJnYMk2-19">
          <mxGeometry y="160" width="250" height="110" as="geometry" />
        </mxCell>
        <mxCell id="G4AfzQulYHPNJcX-L-j1-3" value="" style="sketch=0;points=[[0,0,0],[0.25,0,0],[0.5,0,0],[0.75,0,0],[1,0,0],[0,1,0],[0.25,1,0],[0.5,1,0],[0.75,1,0],[1,1,0],[0,0.25,0],[0,0.5,0],[0,0.75,0],[1,0.25,0],[1,0.5,0],[1,0.75,0]];outlineConnect=0;fontColor=#232F3E;gradientColor=#4D72F3;gradientDirection=north;fillColor=#3334B9;strokeColor=#ffffff;dashed=0;verticalLabelPosition=bottom;verticalAlign=top;align=center;html=1;fontSize=12;fontStyle=0;aspect=fixed;shape=mxgraph.aws4.resourceIcon;resIcon=mxgraph.aws4.database;" parent="ecZtBlpuf6oP3BJnYMk2-19" vertex="1">
          <mxGeometry x="24" y="190" width="64" height="64" as="geometry" />
        </mxCell>
        <mxCell id="ecZtBlpuf6oP3BJnYMk2-41" value="" style="sketch=0;points=[[0,0,0],[0.25,0,0],[0.5,0,0],[0.75,0,0],[1,0,0],[0,1,0],[0.25,1,0],[0.5,1,0],[0.75,1,0],[1,1,0],[0,0.25,0],[0,0.5,0],[0,0.75,0],[1,0.25,0],[1,0.5,0],[1,0.75,0]];outlineConnect=0;fontColor=#232F3E;gradientColor=#4D72F3;gradientDirection=north;fillColor=#3334B9;strokeColor=#ffffff;dashed=0;verticalLabelPosition=bottom;verticalAlign=top;align=center;html=1;fontSize=12;fontStyle=0;aspect=fixed;shape=mxgraph.aws4.resourceIcon;resIcon=mxgraph.aws4.database;" vertex="1" parent="ecZtBlpuf6oP3BJnYMk2-19">
          <mxGeometry x="94" y="190" width="64" height="64" as="geometry" />
        </mxCell>
        <mxCell id="ecZtBlpuf6oP3BJnYMk2-42" value="" style="sketch=0;points=[[0,0,0],[0.25,0,0],[0.5,0,0],[0.75,0,0],[1,0,0],[0,1,0],[0.25,1,0],[0.5,1,0],[0.75,1,0],[1,1,0],[0,0.25,0],[0,0.5,0],[0,0.75,0],[1,0.25,0],[1,0.5,0],[1,0.75,0]];outlineConnect=0;fontColor=#232F3E;gradientColor=#4D72F3;gradientDirection=north;fillColor=#3334B9;strokeColor=#ffffff;dashed=0;verticalLabelPosition=bottom;verticalAlign=top;align=center;html=1;fontSize=12;fontStyle=0;aspect=fixed;shape=mxgraph.aws4.resourceIcon;resIcon=mxgraph.aws4.database;" vertex="1" parent="ecZtBlpuf6oP3BJnYMk2-19">
          <mxGeometry x="164" y="190" width="64" height="64" as="geometry" />
        </mxCell>
        <mxCell id="ecZtBlpuf6oP3BJnYMk2-44" value="" style="whiteSpace=wrap;html=1;aspect=fixed;fillColor=#FFCC99;gradientColor=none;" vertex="1" parent="ecZtBlpuf6oP3BJnYMk2-19">
          <mxGeometry x="40" y="26" width="81" height="81" as="geometry" />
        </mxCell>
        <mxCell id="ecZtBlpuf6oP3BJnYMk2-21" value="Containers" style="text;html=1;align=center;verticalAlign=middle;resizable=0;points=[];autosize=1;strokeColor=none;fillColor=none;" vertex="1" parent="ecZtBlpuf6oP3BJnYMk2-19">
          <mxGeometry x="45.5" y="56.5" width="70" height="20" as="geometry" />
        </mxCell>
        <mxCell id="G4AfzQulYHPNJcX-L-j1-1" value="" style="sketch=0;points=[[0,0,0],[0.25,0,0],[0.5,0,0],[0.75,0,0],[1,0,0],[0,1,0],[0.25,1,0],[0.5,1,0],[0.75,1,0],[1,1,0],[0,0.25,0],[0,0.5,0],[0,0.75,0],[1,0.25,0],[1,0.5,0],[1,0.75,0]];outlineConnect=0;fontColor=#232F3E;gradientColor=#F78E04;gradientDirection=north;fillColor=#D05C17;strokeColor=#ffffff;dashed=0;verticalLabelPosition=bottom;verticalAlign=top;align=center;html=1;fontSize=12;fontStyle=0;aspect=fixed;shape=mxgraph.aws4.resourceIcon;resIcon=mxgraph.aws4.eks;" parent="ecZtBlpuf6oP3BJnYMk2-19" vertex="1">
          <mxGeometry width="60.71428571428571" height="60.71428571428571" as="geometry" />
        </mxCell>
        <mxCell id="ecZtBlpuf6oP3BJnYMk2-24" value="AWS Management Console" style="outlineConnect=0;dashed=0;verticalLabelPosition=bottom;verticalAlign=top;align=center;html=1;shape=mxgraph.aws3.management_console;fillColor=#F58534;gradientColor=none;" vertex="1" parent="G4AfzQulYHPNJcX-L-j1-8">
          <mxGeometry x="380" y="124.5" width="63" height="63" as="geometry" />
        </mxCell>
        <mxCell id="ecZtBlpuf6oP3BJnYMk2-55" style="edgeStyle=orthogonalEdgeStyle;rounded=0;orthogonalLoop=1;jettySize=auto;html=1;entryX=0.25;entryY=0;entryDx=0;entryDy=0;endArrow=none;endFill=0;" edge="1" parent="G4AfzQulYHPNJcX-L-j1-8" source="ecZtBlpuf6oP3BJnYMk2-25" target="G4AfzQulYHPNJcX-L-j1-21">
          <mxGeometry relative="1" as="geometry" />
        </mxCell>
        <mxCell id="ecZtBlpuf6oP3BJnYMk2-56" style="edgeStyle=orthogonalEdgeStyle;rounded=0;orthogonalLoop=1;jettySize=auto;html=1;entryX=0;entryY=0.5;entryDx=0;entryDy=0;entryPerimeter=0;endArrow=none;endFill=0;" edge="1" parent="G4AfzQulYHPNJcX-L-j1-8" source="ecZtBlpuf6oP3BJnYMk2-25" target="ecZtBlpuf6oP3BJnYMk2-24">
          <mxGeometry relative="1" as="geometry" />
        </mxCell>
        <mxCell id="ecZtBlpuf6oP3BJnYMk2-25" value="" style="outlineConnect=0;dashed=0;verticalLabelPosition=bottom;verticalAlign=top;align=center;html=1;shape=mxgraph.aws3.classic_load_balancer;fillColor=#F58534;gradientColor=none;" vertex="1" parent="G4AfzQulYHPNJcX-L-j1-8">
          <mxGeometry x="140" y="120" width="69" height="72" as="geometry" />
        </mxCell>
        <mxCell id="ecZtBlpuf6oP3BJnYMk2-54" style="edgeStyle=orthogonalEdgeStyle;rounded=0;orthogonalLoop=1;jettySize=auto;html=1;" edge="1" parent="1" source="G4AfzQulYHPNJcX-L-j1-7" target="ecZtBlpuf6oP3BJnYMk2-25">
          <mxGeometry relative="1" as="geometry" />
        </mxCell>
        <mxCell id="G4AfzQulYHPNJcX-L-j1-7" value="User" style="sketch=0;outlineConnect=0;fontColor=#232F3E;gradientColor=none;fillColor=#232F3D;strokeColor=none;dashed=0;verticalLabelPosition=bottom;verticalAlign=top;align=center;html=1;fontSize=12;fontStyle=0;aspect=fixed;pointerEvents=1;shape=mxgraph.aws4.client;" parent="1" vertex="1">
          <mxGeometry x="310" y="100" width="78" height="76" as="geometry" />
        </mxCell>
        <mxCell id="G4AfzQulYHPNJcX-L-j1-16" value="Corporate data center" style="points=[[0,0],[0.25,0],[0.5,0],[0.75,0],[1,0],[1,0.25],[1,0.5],[1,0.75],[1,1],[0.75,1],[0.5,1],[0.25,1],[0,1],[0,0.75],[0,0.5],[0,0.25]];outlineConnect=0;gradientColor=none;html=1;whiteSpace=wrap;fontSize=12;fontStyle=0;container=1;pointerEvents=0;collapsible=0;recursiveResize=0;shape=mxgraph.aws4.group;grIcon=mxgraph.aws4.group_corporate_data_center;strokeColor=#5A6C86;fillColor=none;verticalAlign=top;align=left;spacingLeft=30;fontColor=#5A6C86;dashed=0;" parent="1" vertex="1">
          <mxGeometry x="850" y="400" width="410" height="442" as="geometry" />
        </mxCell>
        <mxCell id="G4AfzQulYHPNJcX-L-j1-4" value="RDBMS" style="sketch=0;points=[[0,0,0],[0.25,0,0],[0.5,0,0],[0.75,0,0],[1,0,0],[0,1,0],[0.25,1,0],[0.5,1,0],[0.75,1,0],[1,1,0],[0,0.25,0],[0,0.5,0],[0,0.75,0],[1,0.25,0],[1,0.5,0],[1,0.75,0]];outlineConnect=0;fontColor=#232F3E;gradientColor=#4D72F3;gradientDirection=north;fillColor=#3334B9;strokeColor=#ffffff;dashed=0;verticalLabelPosition=bottom;verticalAlign=top;align=center;html=1;fontSize=12;fontStyle=0;aspect=fixed;shape=mxgraph.aws4.resourceIcon;resIcon=mxgraph.aws4.database;" parent="G4AfzQulYHPNJcX-L-j1-16" vertex="1">
          <mxGeometry x="100" y="290" width="78" height="78" as="geometry" />
        </mxCell>
        <mxCell id="ecZtBlpuf6oP3BJnYMk2-30" value="NAS" style="sketch=0;outlineConnect=0;fontColor=#232F3E;gradientColor=none;fillColor=#3F8624;strokeColor=none;dashed=0;verticalLabelPosition=bottom;verticalAlign=top;align=center;html=1;fontSize=12;fontStyle=0;aspect=fixed;pointerEvents=1;shape=mxgraph.aws4.file_system;" vertex="1" parent="G4AfzQulYHPNJcX-L-j1-16">
          <mxGeometry x="237" y="290" width="78" height="73" as="geometry" />
        </mxCell>
        <mxCell id="ecZtBlpuf6oP3BJnYMk2-33" value="" style="group" vertex="1" connectable="0" parent="G4AfzQulYHPNJcX-L-j1-16">
          <mxGeometry x="50" y="248" width="310" height="152" as="geometry" />
        </mxCell>
        <mxCell id="ecZtBlpuf6oP3BJnYMk2-32" value="Security group" style="fillColor=none;strokeColor=#DD3522;verticalAlign=top;fontStyle=0;fontColor=#DD3522;" vertex="1" parent="ecZtBlpuf6oP3BJnYMk2-33">
          <mxGeometry x="20" y="12" width="290" height="140" as="geometry" />
        </mxCell>
        <mxCell id="ecZtBlpuf6oP3BJnYMk2-31" value="" style="outlineConnect=0;dashed=0;verticalLabelPosition=bottom;verticalAlign=top;align=center;html=1;shape=mxgraph.aws3.vpn_gateway;fillColor=#F58534;gradientColor=none;" vertex="1" parent="ecZtBlpuf6oP3BJnYMk2-33">
          <mxGeometry width="39" height="42" as="geometry" />
        </mxCell>
        <mxCell id="ecZtBlpuf6oP3BJnYMk2-48" value="" style="fillColor=#FFE6CC;strokeColor=#147EBA;dashed=1;verticalAlign=top;fontStyle=0;fontColor=#147EBA;" vertex="1" parent="G4AfzQulYHPNJcX-L-j1-16">
          <mxGeometry x="57" y="60" width="196" height="142" as="geometry" />
        </mxCell>
        <mxCell id="ecZtBlpuf6oP3BJnYMk2-49" value="" style="whiteSpace=wrap;html=1;aspect=fixed;fillColor=#FFCC99;gradientColor=none;" vertex="1" parent="G4AfzQulYHPNJcX-L-j1-16">
          <mxGeometry x="143" y="108" width="81" height="81" as="geometry" />
        </mxCell>
        <mxCell id="ecZtBlpuf6oP3BJnYMk2-50" value="" style="whiteSpace=wrap;html=1;aspect=fixed;fillColor=#FFCC99;gradientColor=none;" vertex="1" parent="G4AfzQulYHPNJcX-L-j1-16">
          <mxGeometry x="126.71000000000004" y="98" width="81" height="81" as="geometry" />
        </mxCell>
        <mxCell id="ecZtBlpuf6oP3BJnYMk2-51" value="" style="whiteSpace=wrap;html=1;aspect=fixed;fillColor=#FFCC99;gradientColor=none;" vertex="1" parent="G4AfzQulYHPNJcX-L-j1-16">
          <mxGeometry x="106" y="88" width="81" height="81" as="geometry" />
        </mxCell>
        <mxCell id="ecZtBlpuf6oP3BJnYMk2-52" value="Containers" style="text;html=1;align=center;verticalAlign=middle;resizable=0;points=[];autosize=1;strokeColor=none;fillColor=none;" vertex="1" parent="G4AfzQulYHPNJcX-L-j1-16">
          <mxGeometry x="111.5" y="118.5" width="70" height="20" as="geometry" />
        </mxCell>
        <mxCell id="ecZtBlpuf6oP3BJnYMk2-53" value="" style="sketch=0;points=[[0,0,0],[0.25,0,0],[0.5,0,0],[0.75,0,0],[1,0,0],[0,1,0],[0.25,1,0],[0.5,1,0],[0.75,1,0],[1,1,0],[0,0.25,0],[0,0.5,0],[0,0.75,0],[1,0.25,0],[1,0.5,0],[1,0.75,0]];outlineConnect=0;fontColor=#232F3E;gradientColor=#F78E04;gradientDirection=north;fillColor=#D05C17;strokeColor=#ffffff;dashed=0;verticalLabelPosition=bottom;verticalAlign=top;align=center;html=1;fontSize=12;fontStyle=0;aspect=fixed;shape=mxgraph.aws4.resourceIcon;resIcon=mxgraph.aws4.eks;" vertex="1" parent="G4AfzQulYHPNJcX-L-j1-16">
          <mxGeometry x="66" y="62" width="60.71428571428571" height="60.71428571428571" as="geometry" />
        </mxCell>
        <mxCell id="ecZtBlpuf6oP3BJnYMk2-23" value="Admin" style="sketch=0;pointerEvents=1;shadow=0;dashed=0;html=1;strokeColor=none;fillColor=#505050;labelPosition=center;verticalLabelPosition=bottom;verticalAlign=top;outlineConnect=0;align=center;shape=mxgraph.office.users.tenant_admin;" vertex="1" parent="1">
          <mxGeometry x="720" y="150" width="75.31" height="78" as="geometry" />
        </mxCell>
        <mxCell id="ecZtBlpuf6oP3BJnYMk2-57" style="edgeStyle=orthogonalEdgeStyle;rounded=0;orthogonalLoop=1;jettySize=auto;html=1;exitX=0.75;exitY=0;exitDx=0;exitDy=0;exitPerimeter=0;endArrow=none;endFill=0;" edge="1" parent="1" source="ecZtBlpuf6oP3BJnYMk2-24" target="ecZtBlpuf6oP3BJnYMk2-23">
          <mxGeometry relative="1" as="geometry" />
        </mxCell>
        <mxCell id="ecZtBlpuf6oP3BJnYMk2-58" style="edgeStyle=orthogonalEdgeStyle;rounded=0;orthogonalLoop=1;jettySize=auto;html=1;entryX=0;entryY=0.5;entryDx=0;entryDy=0;endArrow=none;endFill=0;" edge="1" parent="1" source="G4AfzQulYHPNJcX-L-j1-21" target="ecZtBlpuf6oP3BJnYMk2-48">
          <mxGeometry relative="1" as="geometry" />
        </mxCell>
      </root>
    </mxGraphModel>
  </diagram>
</mxfile>
